<?xml version="1.0" encoding="UTF-8" standalone="yes"?>
<svg width="499.99905" height="499.99997" viewBox="0 0 132.29141 132.29166" version="1.2" xml:space="preserve" baseProfile="tiny-ps" xmlns="http://www.w3.org/2000/svg">
  <title>bimi-svg-tiny-12-ps</title>
  <defs id="defs1"/>
  <path id="path594" d="M 2191.6659,297.52457 V 429.81624 H 2059.3743 V 297.52457 Z" transform="translate(-2059.3743,-297.52458)" fill="#1e42ff" fill-opacity="1" stroke-width="0.24439"/>
  <g id="g597" transform="matrix(0.57440154,0,0,0.48717639,-1291.9483,-776.84348)" fill="#ffffff" fill-opacity="1">
    <path d="m 108.5422,363.81405 -2.50218,2.50218 -45.754282,45.75429 a 5.7788765,5.7788765 75.000052 0 0 2.590589,9.66824 l 14.69716,3.93812 a 17.336521,17.336521 165.00005 0 0 16.745826,-4.48701 l 33.297167,-33.29718 14.95933,-14.95932 a 5.7788221,5.7788221 75.000061 0 0 -2.59056,-9.66816 l -14.69728,-3.93815 a 17.336467,17.336467 165.00007 0 0 -16.74577,4.48699 z" id="path595" transform="translate(2270.9614,1385.5542)" fill="#ffffff" fill-opacity="1" stroke="none" stroke-width="0.5"/>
    <path d="m 69.538908,104.77246 v 19.7419 11.9724 19.58222 a 4.1459702,4.1459702 22.500005 0 0 7.077613,2.93164 l 25.702819,-25.70281 0.12635,-0.12636 a 3.8901265,3.8901265 89.997243 0 0 -2.6e-4,-5.50172 L 76.616515,101.84082 a 4.1459663,4.1459663 157.5 0 0 -7.077607,2.93164 z" id="path596" transform="matrix(1.1914293,0,0,1.1914293,2237.8919,1574.9072)" fill="#ffffff" fill-opacity="1" stroke="none" stroke-width="0.5"/>
    <path d="m 98.432159,49.610294 -14.697638,3.937967 a 5.7787398,5.7787398 105.00046 0 0 -2.590627,9.668044 l 45.628216,45.628215 2.62829,2.6283 a 17.336387,17.336387 14.999962 0 0 16.74571,4.48698 l 14.69734,-3.93817 a 5.7788072,5.7788072 104.99995 0 0 2.59056,-9.66813 L 148.34857,87.268058 115.17798,54.097468 A 17.336827,17.336827 15.00046 0 0 98.432159,49.610294 Z" id="path597" transform="translate(2250.2288,1599.8735)" fill="#ffffff" fill-opacity="1" stroke="none" stroke-width="0.5"/>
  </g>
</svg>